<svg width="48" height="48" viewBox="0 0 48 48" fill="none" xmlns="http://www.w3.org/2000/svg">
<path fill-rule="evenodd" clip-rule="evenodd" d="M35.2 18.25C35.2 16.5241 33.9464 15.125 32.4 15.125H15.6C14.0536 15.125 12.8 16.5241 12.8 18.25V30.75C12.8 32.4759 14.0536 33.875 15.6 33.875H32.4C33.9464 33.875 35.2 32.4759 35.2 30.75V18.25ZM12.8 12C11.2536 12 10 13.3991 10 15.125V33.875C10 35.6009 11.2536 37 12.8 37H35.2C36.7464 37 38 35.6009 38 33.875V15.125C38 13.3991 36.7464 12 35.2 12H12.8Z" fill="#92B7FF"/>
<path fill-rule="evenodd" clip-rule="evenodd" d="M31.3738 23.6009C32.6443 23.6009 33.6743 22.571 33.6743 21.3004C33.6743 20.0299 32.6443 19 31.3738 19C30.1033 19 29.0734 20.0299 29.0734 21.3004C29.0734 22.571 30.1033 23.6009 31.3738 23.6009ZM18.787 20.2374C18.8013 20.223 18.8159 20.209 18.8308 20.1953L20.8394 20.1322C20.8795 20.1649 20.9184 20.2 20.9558 20.2374L20.9565 20.2381L30.7158 29.9974C31.3147 30.5963 31.3147 31.5674 30.7158 32.1663C30.1169 32.7652 29.1459 32.7652 28.5469 32.1663L19.8714 23.4908L16.6181 26.7441C16.0192 27.343 15.0481 27.343 14.4492 26.7441C13.8503 26.1452 13.8503 25.1741 14.4492 24.5752L18.787 20.2374Z" fill="#92B7FF"/>
</svg>
