<?xml version="1.0" encoding="UTF-8" standalone="no"?>
<!DOCTYPE svg PUBLIC "-//W3C//DTD SVG 1.1//EN" "http://www.w3.org/Graphics/SVG/1.1/DTD/svg11.dtd">
<svg width="100%" height="100%" viewBox="0 0 378 378" version="1.1" xmlns="http://www.w3.org/2000/svg" xmlns:xlink="http://www.w3.org/1999/xlink" xml:space="preserve" xmlns:serif="http://www.serif.com/" style="fill-rule:evenodd;clip-rule:evenodd;stroke-linejoin:round;stroke-miterlimit:2;">
    <circle id="Back" cx="188.95" cy="188.95" r="188.95" style="fill:white;"/>
    <circle cx="188.95" cy="188.95" r="188.95" style="fill:rgb(104,225,253);fill-opacity:0.18;"/>
    <g transform="matrix(1,0,0,1,-60.85,-0.48)">
        <path d="M338.88,152.35C339.035,153.094 339.017,153.864 338.83,154.6C338.664,155.338 338.32,156.024 337.83,156.6C335.941,158.776 332.892,159.573 330.18,158.6C329.171,158.292 328.343,157.562 327.91,156.6C327.65,155.463 327.795,154.271 328.32,153.23C328.408,152.937 328.555,152.665 328.75,152.43C329.093,152.144 329.508,151.957 329.95,151.89C333.38,151.01 337.54,144.8 340.37,142.89C339.64,145.46 338.34,150.08 338.88,152.35Z" style="fill:url(#_Linear1);fill-rule:nonzero;"/>
    </g>
    <g transform="matrix(1,0,0,1,-60.85,-0.48)">
        <path d="M336.74,151.23C336.374,151.945 335.928,152.616 335.41,153.23C334.068,154.622 332.214,155.407 330.28,155.4C329.53,155.4 328.64,155.26 328.28,154.58C328.165,154.201 328.124,153.804 328.16,153.41C328.067,152.816 328.101,152.21 328.26,151.63C328.571,151.076 329.056,150.64 329.64,150.39C332.27,148.94 335,147.66 337.72,146.39C338.07,146.22 338.83,145.86 339.11,146.31C339.39,146.76 338.76,147.45 338.57,147.8C338,149 337.37,150.1 336.74,151.23Z" style="fill:url(#_Linear2);fill-rule:nonzero;"/>
    </g>
    <circle cx="186.58" cy="87.66" r="54.18" style="fill:rgb(104,225,253);fill-opacity:0.46;"/>
    <g transform="matrix(1,0,0,1,-60.85,-0.48)">
        <path d="M151,192.74C152.513,193.44 154.132,193.883 155.79,194.05C156.201,194.091 156.617,194.047 157.01,193.92C157.406,193.788 157.718,193.476 157.85,193.08C157.927,192.607 157.791,192.124 157.48,191.76C156.814,190.956 155.973,190.316 155.02,189.89C152.643,188.595 150.026,187.798 147.33,187.55C146.72,187.55 144.67,187.27 144.7,188.32C144.73,189.37 146.53,190.37 147.22,190.82C148.413,191.584 149.679,192.227 151,192.74Z" style="fill:rgb(62,62,84);fill-rule:nonzero;"/>
    </g>
    <g transform="matrix(1,0,0,1,-60.85,-0.48)">
        <path d="M149.29,128.1C148.188,129.989 148.032,132.29 148.87,134.31C149.737,136.309 151.359,137.887 153.38,138.7C155.19,139.46 157.5,139.53 158.93,138.17C159.408,137.686 159.8,137.125 160.09,136.51C160.666,135.435 161.171,134.322 161.6,133.18C162.79,130.03 161.23,127.18 158.08,126.06C154.93,124.94 151.25,125 149.29,128.1Z" style="fill:rgb(62,62,84);fill-rule:nonzero;"/>
    </g>
    <g transform="matrix(1,0,0,1,-60.85,-0.48)">
        <path d="M149.47,128.12C148.355,130.005 148.196,132.31 149.04,134.33C149.91,136.327 151.531,137.904 153.55,138.72C155.37,139.48 157.68,139.55 159.11,138.2C159.582,137.708 159.973,137.144 160.27,136.53C160.838,135.451 161.342,134.339 161.78,133.2C162.97,130.05 161.4,127.2 158.26,126.08C155.12,124.96 151.43,125 149.47,128.12Z" style="fill:url(#_Linear3);fill-rule:nonzero;"/>
    </g>
    <g transform="matrix(1,0,0,1,-60.85,-0.48)">
        <path d="M137,202.83C135.34,205.74 135.48,209.41 136.61,212.57C136.646,212.72 136.726,212.856 136.84,212.96C137.004,213.051 137.195,213.083 137.38,213.05L154.12,212C153.65,212 150.58,205.79 150.12,205.08C149.12,203.39 148.07,201.14 146.53,199.84C143.55,197.28 138.69,199.89 137,202.83Z" style="fill:rgb(62,62,84);fill-rule:nonzero;"/>
    </g>
    <g transform="matrix(1,0,0,1,-60.85,-0.48)">
        <path d="M197.82,186.85C199.459,190.044 200.872,193.349 202.05,196.74C202.437,198.054 202.988,199.314 203.69,200.49C203.905,200.846 204.199,201.147 204.55,201.37C204.935,201.562 205.36,201.661 205.79,201.66C207.597,201.601 209.374,201.187 211.02,200.44C211.917,200.153 212.766,199.735 213.54,199.2C214.35,198.479 215.063,197.655 215.66,196.75C216.51,195.641 217.468,194.62 218.52,193.7C219.609,192.653 220.954,191.912 222.42,191.55C223.911,191.217 225.468,191.766 226.42,192.96C227.029,194.058 227.244,195.333 227.03,196.57C226.97,197.714 226.666,198.832 226.14,199.85C224.8,202.18 221.87,203.03 219.93,204.85C219.357,205.434 218.819,206.051 218.32,206.7C216.791,208.511 215.063,210.144 213.17,211.57C212.182,212.385 211.084,213.058 209.91,213.57C208.73,214.001 207.494,214.26 206.24,214.34C203.648,214.612 201.029,214.409 198.51,213.74C197.329,213.491 196.256,212.879 195.44,211.99C194.749,210.961 194.342,209.767 194.26,208.53C193.412,203.684 192.891,198.786 192.7,193.87C192.7,191.74 192.88,189.33 194.53,187.99C195.962,187.034 197.741,186.749 199.4,187.21" style="fill:url(#_Linear4);fill-rule:nonzero;"/>
    </g>
    <g transform="matrix(1,0,0,1,-60.85,-0.48)">
        <path d="M371.37,198.14C374.116,199.419 376.137,201.878 376.86,204.82C377.553,207.733 377.658,210.756 377.17,213.71C371.836,212.43 366.375,211.759 360.89,211.71L361.95,202.65C362.21,200.46 362.09,198.49 364.25,197.7C366.611,197.103 369.101,197.257 371.37,198.14Z" style="fill:rgb(62,62,84);fill-rule:nonzero;"/>
    </g>
    <path d="M52.51,208L319.62,208C323.46,208 326.62,211.16 326.62,215L45.53,215C45.53,211.16 48.69,208 52.53,208L52.51,208Z" style="fill:rgb(104,225,253);fill-rule:nonzero;"/>
    <path d="M52.51,208L319.62,208C323.46,208 326.62,211.16 326.62,215L45.53,215C45.53,211.16 48.69,208 52.53,208L52.51,208Z" style="fill:url(#_Linear5);fill-rule:nonzero;"/>
    <g transform="matrix(1,0,0,1,-60.85,-0.48)">
        <path d="M346.24,157.56C353.264,159.448 358.543,165.324 359.67,172.51C361.96,185.13 365.4,208.06 364.25,212.07L334.44,212.07C326.6,212.07 319.28,212.82 311.44,213.07C308.67,213.17 305.77,213.23 303.3,211.97C302.903,211.786 302.559,211.503 302.3,211.15C302.033,210.651 301.922,210.083 301.98,209.52C301.98,204.35 303.25,199.28 304.48,194.27L309.4,174.27C309.941,171.632 310.801,169.07 311.96,166.64C314.168,162.557 317.99,159.58 322.49,158.44C327.1,157.31 332.57,157.29 337.32,157.44C340,157.58 343.53,157.56 346.24,157.56Z" style="fill:rgb(104,225,253);fill-rule:nonzero;"/>
    </g>
    <g transform="matrix(1,0,0,1,-60.85,-0.48)">
        <path d="M325.39,156.26L321.78,158C321.586,158.079 321.406,158.19 321.25,158.33C321.054,158.524 320.903,158.76 320.81,159.02C319.64,161.69 319.4,164.69 318.27,167.37C318.083,167.668 318.039,168.036 318.15,168.37C318.246,168.525 318.381,168.652 318.54,168.74L320.54,170.08C320.64,170.14 320.75,170.22 320.76,170.34C320.76,170.459 320.709,170.572 320.62,170.65L317.62,174.3C317.62,177.75 319.34,181.14 321.07,184.14C322.8,187.14 326.38,193.81 327.21,197.14C325.19,185 323.08,168.42 325.39,156.26Z" style="fill:url(#_Linear6);fill-rule:nonzero;"/>
    </g>
    <g transform="matrix(1,0,0,1,-60.85,-0.48)">
        <path d="M349.45,166.58C349.789,168.039 349.674,169.568 349.12,170.96C348.527,172.363 347.144,173.28 345.62,173.28C345.91,174.7 347.69,175.5 347.81,176.94C347.748,177.901 347.292,178.796 346.55,179.41L329.71,197.68C330.11,196.88 328.39,196.87 328.71,196.05C331.978,188.41 334.652,180.53 336.71,172.48C337.36,169.75 338.12,167.05 338.97,164.38C339.41,163 340.26,158.21 341.81,157.7C345.36,156.54 349,164.21 349.45,166.58Z" style="fill:url(#_Linear7);fill-rule:nonzero;"/>
    </g>
    <g transform="matrix(1,0,0,1,-60.85,-0.48)">
        <path d="M332,158C331.161,157.935 330.329,157.805 329.51,157.61C328.59,157.35 327.76,156.84 326.85,156.52C326.659,156.419 326.435,156.401 326.23,156.47C326.083,156.557 325.964,156.686 325.89,156.84C325.25,157.882 324.771,159.015 324.47,160.2C324.074,161.962 323.886,163.764 323.91,165.57C323.85,168.757 323.917,171.947 324.11,175.14C324.157,176.407 324.311,177.668 324.57,178.91C324.88,180.26 325.42,181.55 325.72,182.91C325.94,183.91 326.03,184.91 326.24,185.83C326.724,187.646 327.422,189.399 328.32,191.05C329.7,190.32 330.42,188.77 331.04,187.33L340.59,165.23C341.027,164.409 341.244,163.489 341.22,162.56C340.99,160.66 339.35,160.56 337.95,159.99C336.061,159.073 334.061,158.404 332,158Z" style="fill:white;fill-rule:nonzero;"/>
    </g>
    <g transform="matrix(1,0,0,1,-60.85,-0.48)">
        <path d="M332,158C331.161,157.935 330.329,157.805 329.51,157.61C328.59,157.35 327.76,156.84 326.85,156.52C326.659,156.419 326.435,156.401 326.23,156.47C326.083,156.557 325.964,156.686 325.89,156.84C325.25,157.882 324.771,159.015 324.47,160.2C324.074,161.962 323.886,163.764 323.91,165.57C323.85,168.757 323.917,171.947 324.11,175.14C324.157,176.407 324.311,177.668 324.57,178.91C324.88,180.26 325.42,181.55 325.72,182.91C325.94,183.91 326.03,184.91 326.24,185.83C326.724,187.646 327.422,189.399 328.32,191.05C329.7,190.32 330.42,188.77 331.04,187.33L340.59,165.23C341.027,164.409 341.244,163.489 341.22,162.56C340.99,160.66 339.35,160.56 337.95,159.99C336.061,159.073 334.061,158.404 332,158Z" style="fill:url(#_Linear8);fill-rule:nonzero;"/>
    </g>
    <g transform="matrix(1,0,0,1,-60.85,-0.48)">
        <path d="M200.17,185.62C199.995,186.07 199.683,186.454 199.28,186.72C198.016,187.732 196.697,188.673 195.33,189.54C195.524,191.777 195.062,194.022 194,196C193.35,197.18 192.5,198.24 191.88,199.44C191.321,200.503 190.959,201.658 190.81,202.85C190.43,205.85 190.93,208.85 190.98,211.85C191.001,211.935 191.012,212.023 191.012,212.111C191.012,212.698 190.529,213.181 189.942,213.181C189.891,213.181 189.84,213.177 189.79,213.17C179.099,214.038 168.356,214.072 157.66,213.27C157.23,213.283 156.809,213.137 156.48,212.86C156.297,212.603 156.196,212.296 156.19,211.98C158.04,212.14 159.94,212.15 161.8,212.15L182.91,212.15C183.515,212.236 184.127,212.041 184.57,211.62C184.776,211.26 184.847,210.838 184.77,210.43C184.32,207.11 180.77,205.07 177.41,204.7C176.153,204.561 174.882,204.581 173.63,204.76C172.971,204.89 172.302,204.964 171.63,204.98C170.629,204.898 169.648,204.648 168.73,204.24C165.05,202.813 161.363,201.397 157.67,199.99C158.059,198.131 158.277,196.239 158.32,194.34C158.439,193.398 157.937,192.479 157.08,192.07C156.78,191.86 156.48,191.66 156.16,191.47C153.3,189.712 150.08,188.621 146.74,188.28C146.39,188.28 146.05,188.21 145.74,188.19C145.43,188.17 144.98,188.13 144.79,187.83C144.692,187.653 144.651,187.451 144.67,187.25C144.462,180.686 146.689,174.272 150.92,169.25C155.18,164.33 161.76,160.25 168.26,160.15C170.33,160.15 172.12,161.27 174.19,161.34C176.26,161.41 178.65,160.71 180.7,161.34C183.28,162.04 185.92,162.79 188.03,164.44C190.71,166.54 192.13,169.8 193.83,172.76C196.04,176.62 198.89,180.19 200.16,184.45C200.272,184.831 200.275,185.237 200.17,185.62Z" style="fill:rgb(104,225,253);fill-rule:nonzero;"/>
    </g>
    <g transform="matrix(1,0,0,1,-60.85,-0.48)">
        <path d="M158.05,193C157.897,190.087 157.897,187.18 158.05,184.28C158.67,185.405 159.041,186.65 159.14,187.93C159.916,191.51 162.344,194.517 165.68,196.03C167.4,196.79 169.48,197.27 170.38,198.93C170.586,199.441 170.823,199.938 171.09,200.42C171.678,201.125 172.525,201.564 173.44,201.64C176.61,202.13 180.09,200.75 182.93,202.24C184.03,202.81 190,201.95 190.8,202.89C190.8,202.89 190.69,210.2 190.93,212.36C190.99,212.91 187.14,212.36 186.48,212.31C181.921,212.037 177.385,211.465 172.9,210.6C168.403,209.727 164.121,207.977 160.3,205.45C159.324,204.86 158.515,204.03 157.95,203.04C157.463,201.798 157.311,200.449 157.51,199.13C157.68,196.64 157.89,194.13 158.16,191.69" style="fill:url(#_Linear9);fill-rule:nonzero;"/>
    </g>
    <g transform="matrix(1,0,0,1,-60.85,-0.48)">
        <path d="M184.54,211.67C184.097,212.091 183.485,212.286 182.88,212.2L161.77,212.2C159.91,212.2 158.01,212.2 156.16,212.03C155.69,208.03 156.83,204.03 157.6,200.03C161.287,201.437 164.973,202.853 168.66,204.28C169.578,204.688 170.559,204.938 171.56,205.02C172.232,205.004 172.901,204.93 173.56,204.8C174.812,204.621 176.083,204.601 177.34,204.74C180.67,205.11 184.25,207.15 184.7,210.47C184.791,210.876 184.734,211.302 184.54,211.67Z" style="fill:rgb(104,225,253);fill-rule:nonzero;"/>
    </g>
    <g transform="matrix(1,0,0,1,-60.85,-0.48)">
        <path d="M166.25,144.93C166.61,149.23 166.97,155.14 167.01,159.45L163.85,161C163.68,161.066 163.534,161.181 163.43,161.33C163.364,161.495 163.343,161.674 163.37,161.85L163.91,169.06C163.902,170.358 164.222,171.638 164.84,172.78C165.84,174.3 167.77,174.89 169.56,175.25C171.392,175.693 173.285,175.825 175.16,175.64C176.424,175.422 177.67,175.115 178.89,174.72C180.62,174.24 182.38,173.86 184.14,173.54C184.665,173.488 185.168,173.302 185.6,173C186.214,172.27 186.386,171.262 186.05,170.37C185.251,167.781 183.984,165.361 182.31,163.23C181.757,162.291 180.958,161.52 180,161C179.49,160.78 178.93,160.7 178.4,160.52C177.859,160.378 177.401,160.015 177.14,159.52C177.056,159.235 177.023,158.937 177.04,158.64L177.04,154.33C177.066,153.776 177.015,153.221 176.89,152.68C176.643,151.971 176.248,151.323 175.73,150.78C174.408,149.256 172.84,147.964 171.09,146.96C170.571,146.623 169.989,146.392 169.38,146.28C168.77,146.19 166.65,144.54 166.22,144.98" style="fill:url(#_Linear10);fill-rule:nonzero;"/>
    </g>
    <g transform="matrix(1,0,0,1,-60.85,-0.48)">
        <path d="M171.15,156.33C172.355,157.993 174.296,158.971 176.35,158.95C176.552,158.95 176.749,158.883 176.91,158.76C177.13,158.519 177.235,158.194 177.2,157.87L177.33,153.15C177.474,152.388 176.992,151.637 176.24,151.45C175.02,150.83 168.64,146.66 167.74,148.25C167.25,149.12 168.48,151.46 168.83,152.31C169.387,153.764 170.17,155.121 171.15,156.33Z" style="fill:url(#_Linear11);fill-rule:nonzero;"/>
    </g>
    <g transform="matrix(1,0,0,1,-60.85,-0.48)">
        <path d="M190.68,129C191.084,131.29 191.228,133.618 191.11,135.94C191.185,139.315 190.774,142.683 189.89,145.94C188.968,149.198 186.868,152 184,153.8C180.568,155.64 176.432,155.64 173,153.8C169.624,151.929 167.126,148.79 166.06,145.08C164.619,144.989 163.329,144.144 162.67,142.86C162.039,141.577 161.907,140.105 162.3,138.73C162.57,137.73 163.2,136.73 164.21,136.58C165.22,136.43 166.09,137.32 166.76,138.1C166.14,134.1 166.91,129.83 169.55,126.82C171.561,124.668 174.206,123.211 177.1,122.66C179.81,122.07 184.02,121.48 186.72,122.38C189.08,123.18 190.24,126.85 190.68,129Z" style="fill:url(#_Linear12);fill-rule:nonzero;"/>
    </g>
    <g transform="matrix(1,0,0,1,-60.85,-0.48)">
        <path d="M191.27,121.46C192.074,124.047 192.412,126.755 192.27,129.46L192.27,132.76L171.16,132.76C170.995,132.777 170.828,132.746 170.68,132.67C170.532,132.554 170.426,132.392 170.38,132.21C170.011,131.185 169.743,130.127 169.58,129.05C168.24,131.39 168.46,134.27 168.31,136.96C168.338,137.361 168.183,137.755 167.89,138.03C167.535,138.226 167.089,138.165 166.8,137.88C166.564,137.651 166.313,137.437 166.05,137.24C164.55,136.24 163.3,136.39 162.36,138.78C158.46,136.06 159.82,128.58 160.11,125.97C160.207,124.757 160.442,123.56 160.81,122.4C161.835,119.766 163.749,117.572 166.22,116.2C170.13,113.86 174.8,113.14 179.35,113.2C180.668,113.143 181.985,113.323 183.24,113.73C184.206,114.084 185.045,114.718 185.65,115.55C186.101,116.154 186.705,116.627 187.4,116.92C189.191,117.921 190.565,119.533 191.27,121.46Z" style="fill:rgb(62,62,84);fill-rule:nonzero;"/>
    </g>
    <g transform="matrix(1,0,0,1,-60.85,-0.48)">
        <path d="M191.27,121.46C192.074,124.047 192.412,126.755 192.27,129.46L192.27,132.76L171.16,132.76C170.995,132.777 170.828,132.746 170.68,132.67C170.532,132.554 170.426,132.392 170.38,132.21C170.011,131.185 169.743,130.127 169.58,129.05C168.24,131.39 168.46,134.27 168.31,136.96C168.338,137.361 168.183,137.755 167.89,138.03C167.535,138.226 167.089,138.165 166.8,137.88C166.564,137.651 166.313,137.437 166.05,137.24C164.55,136.24 163.3,136.39 162.36,138.78C158.46,136.06 159.82,128.58 160.11,125.97C160.207,124.757 160.442,123.56 160.81,122.4C161.835,119.766 163.749,117.572 166.22,116.2C170.13,113.86 174.8,113.14 179.35,113.2C180.668,113.143 181.985,113.323 183.24,113.73C184.206,114.084 185.045,114.718 185.65,115.55C186.101,116.154 186.705,116.627 187.4,116.92C189.191,117.921 190.565,119.533 191.27,121.46Z" style="fill:url(#_Linear13);fill-rule:nonzero;"/>
    </g>
    <g transform="matrix(1,0,0,1,-60.85,-0.48)">
        <path d="M186.78,177.46C186.774,179.162 186.487,180.852 185.93,182.46C185.362,184.101 184.213,185.478 182.7,186.33C181.714,186.791 180.654,187.075 179.57,187.17C178.14,187.405 176.68,187.405 175.25,187.17C171.95,186.53 169.25,184.03 167.57,181.12C166.029,178.13 164.925,174.934 164.29,171.63C169.33,171.803 174.377,171.803 179.43,171.63C180.68,171.63 181.93,171.55 183.18,171.49C183.9,171.49 185.36,171.05 186.04,171.49C187.34,172.26 186.82,176.15 186.78,177.46Z" style="fill:white;fill-rule:nonzero;"/>
    </g>
    <g transform="matrix(1,0,0,1,-60.85,-0.48)">
        <path d="M184.54,211.67C184.097,212.091 183.485,212.286 182.88,212.2L161.77,212.2C159.91,212.2 158.01,212.2 156.16,212.03C153.996,211.88 151.873,211.366 149.88,210.51C147.527,209.586 145.697,207.672 144.88,205.28C144.622,204.149 144.548,202.984 144.66,201.83C144.855,197.612 145.455,193.423 146.45,189.32C146.54,188.97 146.6,188.62 146.67,188.32C150.01,188.661 153.23,189.752 156.09,191.51C156.09,193.61 154.28,195.85 154.42,198.09C154.412,198.32 154.475,198.547 154.6,198.74C154.769,198.912 154.979,199.039 155.21,199.11L157.6,200.03C161.287,201.437 164.973,202.853 168.66,204.28C169.578,204.688 170.559,204.938 171.56,205.02C172.232,205.004 172.901,204.93 173.56,204.8C174.812,204.621 176.083,204.601 177.34,204.74C180.67,205.11 184.25,207.15 184.7,210.47C184.791,210.876 184.734,211.302 184.54,211.67Z" style="fill:url(#_Linear14);fill-rule:nonzero;"/>
    </g>
    <g transform="matrix(1,0,0,1,-60.85,-0.48)">
        <path d="M226.79,175.89C226.831,175.6 226.8,175.305 226.7,175.03C226.491,174.681 226.17,174.413 225.79,174.27C218.67,170.69 210.36,170.72 202.39,170.82C202.655,184.988 200.214,199.077 195.2,212.33L219.2,212.75C219.543,211.082 219.711,209.383 219.7,207.68C219.85,205.99 220.38,204.17 221.78,203.21C220.616,201.232 220.115,198.933 220.35,196.65C220.631,195.065 221.554,193.664 222.9,192.78C224.52,191.65 224.72,191.62 225.12,189.53C225.996,185.028 226.554,180.47 226.79,175.89Z" style="fill:white;fill-rule:nonzero;"/>
    </g>
    <g transform="matrix(1,0,0,1,-60.85,-0.48)">
        <path d="M314.17,136.28C314.29,140.73 314.64,145.55 317.57,148.91C319.858,151.375 323.098,152.742 326.46,152.66C329.796,152.577 333.039,151.535 335.8,149.66C337.679,148.515 339.253,146.934 340.39,145.05C340.787,144.11 341.327,143.236 341.99,142.46C342.82,141.67 343.99,141.34 344.81,140.51C345.442,139.794 345.797,138.875 345.81,137.92C345.95,136.319 345.175,134.768 343.81,133.92C343.388,133.686 342.912,133.563 342.43,133.563C341.343,133.563 340.348,134.184 339.87,135.16C340.54,130.16 340.07,124.55 336.62,120.85C335.163,119.367 333.417,118.2 331.49,117.42C328.652,116.175 325.589,115.522 322.49,115.5C320.418,115.42 318.362,115.901 316.54,116.89C313.32,118.89 313.8,121.02 314.09,124.1C314.48,128.06 314.07,132.26 314.17,136.28Z" style="fill:url(#_Linear15);fill-rule:nonzero;"/>
    </g>
    <g transform="matrix(1,0,0,1,-60.85,-0.48)">
        <path d="M312.24,114.17C312.071,113.074 312.235,111.952 312.71,110.95C313.187,110.135 313.879,109.467 314.71,109.02C316.24,108.245 317.909,107.786 319.62,107.67C326.453,106.9 333.367,108.054 339.58,111C341.46,111.9 343.42,113.17 343.94,115.19C344.102,116.269 344.149,117.361 344.08,118.45C344.075,118.703 344.141,118.952 344.27,119.17C344.55,119.55 345.09,119.56 345.55,119.65C346.62,119.95 347.493,120.73 347.91,121.76C348.31,122.779 348.543,123.856 348.6,124.95C348.856,126.716 348.883,128.507 348.68,130.28C348.459,132.062 347.603,133.706 346.27,134.91C345.995,135.172 345.646,135.343 345.27,135.4C344.4,135.46 343.8,134.55 343.01,134.16C342.151,133.809 341.172,133.906 340.4,134.42C339.634,134.932 338.959,135.567 338.4,136.3L336.55,123.47C336.552,123.436 336.552,123.401 336.552,123.367C336.552,122.193 335.586,121.227 334.412,121.227C334.254,121.227 334.095,121.245 333.94,121.28L319.32,120.72C317.26,120.64 316.05,120.92 314.57,119.3C313.274,117.877 312.459,116.082 312.24,114.17Z" style="fill:rgb(62,62,84);fill-rule:nonzero;"/>
    </g>
    <g transform="matrix(1,0,0,1,-60.85,-0.48)">
        <path d="M312.24,114.17C312.071,113.074 312.235,111.952 312.71,110.95C313.187,110.135 313.879,109.467 314.71,109.02C316.24,108.245 317.909,107.786 319.62,107.67C326.453,106.9 333.367,108.054 339.58,111C341.46,111.9 343.42,113.17 343.94,115.19C344.102,116.269 344.149,117.361 344.08,118.45C344.075,118.703 344.141,118.952 344.27,119.17C344.55,119.55 345.09,119.56 345.55,119.65C346.62,119.95 347.493,120.73 347.91,121.76C348.31,122.779 348.543,123.856 348.6,124.95C348.856,126.716 348.883,128.507 348.68,130.28C348.459,132.062 347.603,133.706 346.27,134.91C345.995,135.172 345.646,135.343 345.27,135.4C344.4,135.46 343.8,134.55 343.01,134.16C342.151,133.809 341.172,133.906 340.4,134.42C339.634,134.932 338.959,135.567 338.4,136.3L336.55,123.47C336.552,123.436 336.552,123.401 336.552,123.367C336.552,122.193 335.586,121.227 334.412,121.227C334.254,121.227 334.095,121.245 333.94,121.28L319.32,120.72C317.26,120.64 316.05,120.92 314.57,119.3C313.274,117.877 312.459,116.082 312.24,114.17Z" style="fill:url(#_Linear16);fill-rule:nonzero;"/>
    </g>
    <g transform="matrix(1,0,0,1,-60.85,-0.48)">
        <path d="M337.26,155.5C336.11,156.04 334.87,156.39 333.77,157.02C333.622,157.089 333.494,157.196 333.4,157.33C333.32,157.48 333.288,157.651 333.31,157.82C333.402,158.474 333.623,159.102 333.96,159.67L336.26,164.17C338.871,162.058 340.505,158.967 340.78,155.62C341,152.14 338.7,154.82 337.26,155.5Z" style="fill:white;fill-rule:nonzero;"/>
    </g>
    <g transform="matrix(1,0,0,1,-60.85,-0.48)">
        <path d="M326.62,155.36C326.535,156.051 326.535,156.749 326.62,157.44C326.67,158.152 326.67,158.868 326.62,159.58C326.555,159.91 326.555,160.25 326.62,160.58C326.684,160.903 326.93,161.161 327.25,161.24C327.645,161.248 328.02,161.061 328.25,160.74C328.86,160.09 329.38,159.36 330.02,158.74C330.633,158.083 331.458,157.662 332.35,157.55C331.983,157.036 331.486,156.629 330.91,156.37C330.173,155.918 329.531,155.327 329.02,154.63C328.68,154.17 328.23,153.42 327.58,153.73C327.057,154.124 326.711,154.711 326.62,155.36Z" style="fill:white;fill-rule:nonzero;"/>
    </g>
    <g transform="matrix(1,0,0,1,-60.85,-0.48)">
        <path d="M349.1,164.35C349.444,165.812 349.329,167.346 348.77,168.74C348.177,170.143 346.794,171.06 345.27,171.06C345.56,172.47 347.34,173.27 347.46,174.71C347.398,175.671 346.942,176.566 346.2,177.18L329.36,195.46C333.28,187.64 334.36,178.76 336.36,170.25C337.01,167.53 337.77,164.83 338.62,162.16C339.06,160.78 339.91,155.98 341.46,155.47C345,154.31 348.66,162 349.1,164.35Z" style="fill:rgb(104,225,253);fill-rule:nonzero;"/>
    </g>
    <g transform="matrix(1,0,0,1,-60.85,-0.48)">
        <path d="M326.35,155.65L322.74,157.39C322.546,157.469 322.366,157.58 322.21,157.72C322.014,157.914 321.863,158.15 321.77,158.41C320.6,161.08 320.36,164.07 319.23,166.76C319.045,167.059 318.997,167.424 319.1,167.76C319.203,167.913 319.34,168.04 319.5,168.13L321.5,169.47C321.632,169.513 321.721,169.636 321.721,169.774C321.721,169.881 321.668,169.981 321.58,170.04L318.58,173.69C318.58,177.14 320.3,180.53 322.03,183.53C323.76,186.53 327.34,193.2 328.17,196.53C326.15,184.38 324,167.81 326.35,155.65Z" style="fill:rgb(104,225,253);fill-rule:nonzero;"/>
    </g>
    <g transform="matrix(1,0,0,1,-60.85,-0.48)">
        <path d="M349.1,164.35C349.444,165.812 349.329,167.346 348.77,168.74C348.177,170.143 346.794,171.06 345.27,171.06C345.56,172.47 347.34,173.27 347.46,174.71C347.398,175.671 346.942,176.566 346.2,177.18L329.36,195.46C333.28,187.64 334.36,178.76 336.36,170.25C337.01,167.53 337.77,164.83 338.62,162.16C339.06,160.78 339.91,155.98 341.46,155.47C345,154.31 348.66,162 349.1,164.35Z" style="fill:url(#_Linear17);fill-rule:nonzero;"/>
    </g>
    <g transform="matrix(1,0,0,1,-60.85,-0.48)">
        <path d="M334.64,205.75L349.35,205.75C350.55,198.11 348.5,190.37 348.17,182.65C346.987,187.052 345.473,191.357 343.64,195.53C343.352,196.241 342.975,196.913 342.52,197.53C341.919,198.22 341.201,198.798 340.4,199.24C333.97,203.09 325.92,203.24 318.6,201.68C317.74,194.6 316.87,187.45 314.42,180.75C313.856,188.05 312.817,195.305 311.31,202.47C311.206,203.142 310.95,203.782 310.56,204.34C310.121,204.786 309.631,205.178 309.1,205.51C306.92,207.2 306.39,210.22 306.02,212.95C305.881,213.533 305.944,214.147 306.2,214.69C306.728,215.257 307.488,215.552 308.26,215.49C315.295,215.955 322.352,215.985 329.39,215.58C331.25,215.47 337.11,215.99 337.77,213.98C338.1,213 335.72,205.75 334.64,205.75Z" style="fill:url(#_Linear18);fill-rule:nonzero;"/>
    </g>
    <g transform="matrix(1,0,0,1,-60.85,-0.48)">
        <path d="M327.43,205.07C326.542,205.077 325.656,205.154 324.78,205.3C324.124,205.394 323.48,205.558 322.86,205.79C321.822,206.227 320.889,206.878 320.12,207.7C319.828,207.97 319.584,208.288 319.4,208.64C319.181,209.22 319.096,209.842 319.15,210.46C319.15,211.16 319.24,211.98 319.85,212.33C320.145,212.462 320.468,212.52 320.79,212.5L322.99,212.5L333.9,212.12C335.201,212.1 336.499,212.01 337.79,211.85C338.013,211.847 338.224,211.749 338.37,211.58C338.427,211.469 338.455,211.345 338.45,211.22C338.489,210.37 338.292,209.525 337.88,208.78C337.44,207.96 336.88,207.78 336.04,207.41C334.299,206.595 332.484,205.949 330.62,205.48C329.575,205.224 328.505,205.087 327.43,205.07Z" style="fill:url(#_Linear19);fill-rule:nonzero;"/>
    </g>
    <g transform="matrix(1,0,0,1,-60.85,-0.48)">
        <path d="M319.73,207C320.612,207.559 321.268,208.413 321.58,209.41C321.861,210.438 321.406,211.533 320.48,212.06C320.057,212.215 319.611,212.297 319.16,212.3C314.767,212.527 310.373,212.55 305.98,212.37C305.795,212.377 305.611,212.332 305.45,212.24C305.253,212.052 305.141,211.792 305.14,211.52C304.846,210.274 305.002,208.963 305.58,207.82C306.85,205.94 309.85,205.14 311.95,205.13C314.63,205.12 317.48,205.42 319.73,207Z" style="fill:url(#_Linear20);fill-rule:nonzero;"/>
    </g>
    <g transform="matrix(-1,7.65714e-16,-7.65714e-16,-1,434.31,439.72)">
        <path d="M388.91,215.66C388.91,213.999 387.561,212.65 385.9,212.65L109.27,212.65C107.609,212.65 106.26,213.999 106.26,215.66L106.26,224.55C106.26,226.211 107.609,227.56 109.27,227.56L385.9,227.56C387.561,227.56 388.91,226.211 388.91,224.55L388.91,215.66Z" style="fill:rgb(104,225,253);"/>
    </g>
    <g transform="matrix(-1,7.65714e-16,-7.65714e-16,-1,434.31,543.49)">
        <path d="M128.54,226.69L366.62,226.69C374.602,226.69 381.17,233.258 381.17,241.24L381.17,317.24L114,317.24L114,241.24C114,233.258 120.568,226.69 128.55,226.69L128.54,226.69Z" style="fill:rgb(104,225,253);fill-rule:nonzero;"/>
    </g>
    <g transform="matrix(-1,7.65714e-16,-7.65714e-16,-1,434.31,491.87)">
        <rect x="114" y="226.69" width="267.17" height="38.96" style="fill:url(#_Linear21);"/>
    </g>
    <g transform="matrix(1,0,0,1,-60.85,-0.48)">
        <path d="M333.27,158.2C334.659,159.382 335.192,161.301 334.61,163.03C334.29,163.93 333.69,164.71 333.46,165.64C333.32,166.562 333.361,167.503 333.58,168.41C333.88,170.17 334.1,171.95 334.23,173.74C334.347,175.071 334.347,176.409 334.23,177.74C334.026,179.266 333.692,180.771 333.23,182.24L330.93,190.33C330.374,192.472 329.662,194.571 328.8,196.61C327.66,195.55 327.41,193.87 327.24,192.32C327.027,190.467 326.837,188.61 326.67,186.75C326.422,184.816 326.398,182.86 326.6,180.92C326.959,178.929 327.546,176.986 328.35,175.13C329.15,173.05 329.95,170.98 330.76,168.9C331.35,167.37 331.96,165.7 331.55,164.11C331.06,162.23 329.2,160.59 329.7,158.71C330.457,157.62 331.919,157.254 333.1,157.86C334.46,158.63 334.82,160.38 335.04,161.86" style="fill:rgb(62,62,84);fill-rule:nonzero;"/>
    </g>
    <g transform="matrix(1,0,0,1,-60.85,-0.48)">
        <path d="M333.27,158.2C334.659,159.382 335.192,161.301 334.61,163.03C334.29,163.93 333.69,164.71 333.46,165.64C333.32,166.562 333.361,167.503 333.58,168.41C333.88,170.17 334.1,171.95 334.23,173.74C334.347,175.071 334.347,176.409 334.23,177.74C334.026,179.266 333.692,180.771 333.23,182.24L330.93,190.33C330.374,192.472 329.662,194.571 328.8,196.61C327.66,195.55 327.41,193.87 327.24,192.32C327.027,190.467 326.837,188.61 326.67,186.75C326.422,184.816 326.398,182.86 326.6,180.92C326.959,178.929 327.546,176.986 328.35,175.13C329.15,173.05 329.95,170.98 330.76,168.9C331.35,167.37 331.96,165.7 331.55,164.11C331.06,162.23 329.2,160.59 329.7,158.71C330.457,157.62 331.919,157.254 333.1,157.86C334.46,158.63 334.82,160.38 335.04,161.86" style="fill:url(#_Linear22);fill-rule:nonzero;"/>
    </g>
    <g transform="matrix(1,0,0,1,-60.85,-0.48)">
        <path d="M165.76,139.85C165.686,139.572 165.561,139.311 165.39,139.08C165.21,138.852 164.94,138.713 164.65,138.7C164.197,138.765 163.826,139.097 163.71,139.54C163.439,140.566 163.625,141.661 164.22,142.54C164.46,142.96 164.82,143.41 165.3,143.41C166.82,143.38 166,140.59 165.76,139.85Z" style="fill:url(#_Linear23);fill-rule:nonzero;"/>
    </g>
    <g transform="matrix(1,0,0,1,-60.85,-0.48)">
        <path d="M192.93,254L200.21,254L209.72,268L209.72,254L217.08,254L217.08,279.25L209.72,279.25L200.27,265.39L200.27,279.25L192.93,279.25L192.93,254Z" style="fill:white;fill-rule:nonzero;"/>
    </g>
    <g transform="matrix(1,0,0,1,-60.85,-0.48)">
        <path d="M222.24,254L243.15,254L243.15,259.39L230.06,259.39L230.06,263.39L242.2,263.39L242.2,268.54L230.06,268.54L230.06,273.54L243.53,273.54L243.53,279.26L222.24,279.26L222.24,254Z" style="fill:white;fill-rule:nonzero;"/>
    </g>
    <g transform="matrix(1,0,0,1,-60.85,-0.48)">
        <path d="M245.13,254L252.54,254L255.21,268.13L259.11,254L266.5,254L270.41,268.12L273.08,254L280.45,254L274.89,279.25L267.24,279.25L262.81,263.35L258.4,279.25L250.75,279.25L245.13,254Z" style="fill:white;fill-rule:nonzero;"/>
    </g>
    <g transform="matrix(1,0,0,1,-60.85,-0.48)">
        <path d="M281.64,270.89L289.06,270.42C289.148,271.411 289.493,272.363 290.06,273.18C290.892,274.214 292.175,274.784 293.5,274.71C294.427,274.77 295.345,274.489 296.08,273.92C296.635,273.494 296.96,272.834 296.96,272.135C296.96,271.436 296.635,270.776 296.08,270.35C294.867,269.582 293.503,269.084 292.08,268.89C288.66,268.123 286.22,267.1 284.76,265.82C283.324,264.618 282.513,262.823 282.56,260.95C282.566,259.639 282.959,258.359 283.69,257.27C284.526,256.048 285.706,255.101 287.08,254.55C289.062,253.805 291.174,253.465 293.29,253.55C296.51,253.55 298.97,254.15 300.67,255.35C302.453,256.733 303.549,258.826 303.67,261.08L296.32,261.51C296.236,259.684 294.711,258.227 292.884,258.227C292.752,258.227 292.621,258.235 292.49,258.25C291.76,258.196 291.034,258.401 290.44,258.83C290.007,259.164 289.755,259.683 289.76,260.23C289.769,260.66 289.976,261.062 290.32,261.32C291.116,261.815 292.01,262.133 292.94,262.25C295.463,262.699 297.924,263.448 300.27,264.48C301.586,265.09 302.703,266.061 303.49,267.28C304.163,268.406 304.509,269.698 304.49,271.01C304.497,272.604 304.026,274.165 303.14,275.49C302.227,276.876 300.921,277.959 299.39,278.6C297.458,279.368 295.388,279.729 293.31,279.66C289.02,279.66 286.04,278.83 284.39,277.18C282.746,275.483 281.769,273.249 281.64,270.89Z" style="fill:white;fill-rule:nonzero;"/>
    </g>
    <g transform="matrix(1,0,0,1,-60.85,-0.48)">
        <path d="M195,184.12C194.968,182.596 194.753,181.082 194.36,179.61C193.84,177.98 192.87,176.44 192.86,174.74C193.752,176.486 194.782,178.158 195.94,179.74C196.6,180.65 197.29,181.52 197.94,182.47C198.469,183.309 198.918,184.196 199.28,185.12C199.429,185.431 199.494,185.776 199.47,186.12C199.323,186.654 198.96,187.103 198.47,187.36C197.73,187.85 196.06,189.36 195.35,188.54C194.73,187.89 195,185 195,184.12Z" style="fill:url(#_Linear24);fill-rule:nonzero;"/>
    </g>
    <g transform="matrix(1,0,0,1,-60.85,-0.48)">
        <path d="M265.92,38.46L265.56,39.66C265.54,39.666 265.52,39.666 265.5,39.66C264.01,39.86 263.88,40.05 264.27,41.53C264.66,43.01 264.51,43.28 263.27,44.13C263.029,44.247 262.874,44.492 262.874,44.76C262.874,44.891 262.911,45.019 262.98,45.13C263.216,45.931 264.046,46.416 264.86,46.23C265.86,46.17 265.86,46.17 266.1,47.07C266.222,47.447 266.541,47.728 266.93,47.8C267.31,47.933 267.675,48.104 268.02,48.31C268.34,48.49 268.32,48.73 268.14,49.05C267.764,49.656 267.468,50.308 267.26,50.99C267.019,52.291 266.182,53.406 265,54C264.74,54.14 264.49,54.3 264.08,54.55L265.6,54.84C266.217,54.891 266.773,55.238 267.09,55.77C267.209,55.939 267.273,56.14 267.273,56.346C267.273,56.732 267.049,57.085 266.7,57.25C266.199,57.523 265.673,57.747 265.13,57.92C263.54,58.49 263.32,59.14 264.27,60.52C264.62,61.02 264.96,61.52 265.34,62.01C265.533,62.257 265.774,62.461 266.05,62.61C266.43,62.82 266.79,62.89 267.05,62.35C267.242,62.094 267.467,61.865 267.72,61.67C268.476,62.404 268.738,63.515 268.39,64.51C267.74,66.33 267.06,68.15 266.48,69.99C265.5,72.522 266.01,75.399 267.8,77.44C268.089,77.8 268.284,78.226 268.37,78.68C268.517,79.526 269.04,80.262 269.79,80.68C270.113,80.882 270.446,81.066 270.79,81.23C271.755,81.674 272.586,82.364 273.2,83.23C273.488,83.639 273.824,84.011 274.2,84.34C274.481,84.622 274.864,84.781 275.262,84.781C275.79,84.781 276.28,84.503 276.55,84.05C276.645,83.933 276.726,83.806 276.79,83.67C277.127,82.896 277.959,82.451 278.79,82.6L279.68,82.6C280.54,82.6 280.68,82.47 280.79,81.6C280.79,81.45 280.79,81.3 280.86,81.16C280.918,80.63 281.371,80.224 281.904,80.224C282.008,80.224 282.111,80.24 282.21,80.27C282.91,80.38 283.63,80.48 284.34,80.54C285.59,80.64 286.04,81.06 285.9,82.3C285.797,83.429 286.087,84.56 286.72,85.5C287.403,86.711 288.251,87.822 289.24,88.8C290.187,89.492 290.422,90.826 289.77,91.8C289.55,92.29 289.29,92.8 289.04,93.24C288.527,94.111 288.563,95.204 289.13,96.04C289.866,97.189 290.699,98.273 291.62,99.28C292.615,100.164 293.122,101.477 292.98,102.8C292.78,104.311 293.281,105.834 294.34,106.93C294.405,106.998 294.475,107.062 294.55,107.12C294.594,107.148 294.641,107.171 294.69,107.19C295.69,106.11 297.35,106.02 298.25,104.63C291.322,127.121 270.396,142.572 246.862,142.572C217.365,142.572 193.092,118.299 193.092,88.802C193.092,59.305 217.365,35.032 246.862,35.032C253.352,35.032 259.789,36.207 265.86,38.5L265.92,38.46ZM224.33,58.23C225.99,58.15 227.52,58.96 229.09,58.66L229.43,56.41C229.167,56.341 228.9,56.288 228.63,56.25C228.24,56.25 228.21,55.95 228.25,55.71C228.325,55.536 228.477,55.407 228.66,55.36C229.07,55.28 229.51,55.3 229.92,55.21C230.234,55.123 230.539,55.006 230.83,54.86L230.83,54.57C230.285,54.452 229.726,54.412 229.17,54.45C227.784,54.797 226.312,54.499 225.17,53.64C224.58,53.193 223.812,53.048 223.1,53.25C222.38,53.439 221.677,53.69 221,54C220.04,54.519 218.88,54.519 217.92,54C217.527,53.797 217.1,53.672 216.66,53.63C215.9,53.56 215.81,53.71 216.05,54.46L217.05,54.52C216.851,54.715 216.676,54.933 216.53,55.17C216.442,55.42 216.378,55.678 216.34,55.94C215.19,55.94 214.86,56.3 214.84,57.46C214.835,57.868 214.855,58.275 214.9,58.68C214.95,59.19 215.03,59.68 215.1,60.27C213.52,59.44 212.02,60.27 210.46,60.27C210.46,60.07 210.46,59.87 210.4,59.67C210.383,59.359 210.297,59.055 210.15,58.78C209.945,58.542 209.661,58.386 209.35,58.34C208.96,58.34 208.94,58.71 208.96,59C208.991,59.533 208.698,60.034 208.22,60.27C207.226,60.92 206.091,61.325 204.91,61.45C204.1,61.53 203.29,61.65 202.5,61.8C202.13,61.86 201.76,62.05 201.8,62.52C201.838,62.958 202.139,63.331 202.56,63.46C202.92,63.621 203.348,63.492 203.56,63.16C203.8,62.82 204.01,62.45 204.26,62.05C204.37,62.2 204.52,62.31 204.56,62.45C204.75,63 205.18,63.05 205.66,63.06C206.868,63.097 208.063,62.795 209.11,62.19C209.25,62.11 209.39,62.05 209.53,61.98C209.342,62.306 209.074,62.578 208.75,62.77C207.89,63.26 207.01,63.77 206.11,64.18C204.844,64.81 203.431,65.09 202.02,64.99L200.41,64.99C199.586,64.962 198.837,65.486 198.58,66.27C198.344,66.918 198.173,67.588 198.07,68.27C197.82,70.16 197.69,72.07 197.39,73.95C197.144,74.968 196.837,75.969 196.47,76.95C196.193,77.657 196.404,78.467 196.99,78.95C197.41,79.32 197.68,79.27 197.83,78.72C197.98,78.17 198,77.85 198.1,77.31C198.47,78.04 198.76,78.67 199.1,79.31C199.82,80.607 200.349,82.002 200.67,83.45C200.859,84.278 201.11,85.09 201.42,85.88C201.892,87.32 203.084,88.414 204.56,88.76C206.236,89.08 207.581,90.346 208,92C208.212,92.651 208.504,93.272 208.87,93.85C209.317,94.605 210.236,94.952 211.07,94.68L210,93.5C209.51,92.99 209,92.5 208.53,91.99C208.066,91.492 207.944,90.762 208.22,90.14C208.424,90.173 208.622,90.234 208.81,90.32C210.47,91.32 212.32,92.08 213.61,93.57C215.153,95.448 217.621,96.317 220,95.82C221.739,95.547 223.504,95.473 225.26,95.6C226.059,95.619 226.831,95.896 227.46,96.39C227.889,96.7 228.365,96.939 228.87,97.1C229.99,97.53 231.11,97.94 232.25,98.33C232.532,98.443 232.841,98.474 233.14,98.42C233.485,98.269 233.89,98.358 234.14,98.64C234.565,99.023 234.905,99.489 235.14,100.01C235.354,100.848 235.478,101.706 235.51,102.57C235.58,103.64 235.51,104.72 235.6,105.79C235.58,106.989 236.261,108.096 237.34,108.62C238.296,109.118 239.124,109.83 239.76,110.7L240.82,111.98C241.273,112.618 242.045,112.954 242.82,112.85C243.88,112.66 244.34,113.2 244.68,114.03C244.76,114.22 244.85,114.4 244.93,114.59C245.67,116.28 246.39,117.99 247.15,119.67C247.986,121.378 248.262,123.306 247.94,125.18C247.684,126.55 247.921,127.968 248.61,129.18C249.03,129.98 249.34,130.83 249.73,131.65C250.4,133.05 251.06,134.46 251.8,135.81C252.057,136.307 252.472,136.705 252.98,136.94C254.245,137.334 255.607,137.285 256.84,136.8C256.97,136.75 257.16,136.55 257.14,136.46C257.088,136.29 256.963,136.151 256.8,136.08C256.511,136.045 256.219,136.045 255.93,136.08C255.842,136.102 255.752,136.113 255.661,136.113C255.119,136.113 254.649,135.723 254.55,135.19C254.401,134.791 254.274,134.383 254.17,133.97C253.85,132.49 253.53,130.97 253.26,129.52C253.19,129.14 253.17,128.52 253.38,128.37C253.853,128.051 254.372,127.808 254.92,127.65L255.3,127.65C255.4,127.65 255.81,127.39 255.86,127.2C255.91,127.01 255.68,126.78 255.53,126.49C255.6,126.4 255.76,126.23 255.91,126.04C256.45,125.35 256.44,125.04 255.91,124.32C255.637,124.044 255.405,123.731 255.22,123.39C254.974,122.863 254.819,122.298 254.76,121.72C254.799,121.384 255.007,121.09 255.31,120.94C255.645,120.897 255.984,120.991 256.25,121.2C256.481,121.43 256.676,121.693 256.83,121.98C257.437,121.962 257.926,121.458 257.926,120.85C257.926,120.81 257.924,120.77 257.92,120.73C257.938,119.827 257.882,118.924 257.75,118.03C257.533,116.876 257.709,115.682 258.25,114.64C258.609,113.913 258.875,113.144 259.04,112.35C259.268,111.254 259.835,110.257 260.66,109.5C261.05,109.14 261.45,108.78 261.83,108.4C262.547,107.744 262.818,106.725 262.52,105.8C262.287,105 261.996,104.218 261.65,103.46C260.873,101.99 260.667,100.283 261.07,98.67C261.3,97.76 261.07,97.36 260.16,97.18C259.181,96.932 258.167,96.844 257.16,96.92C254.702,97.355 252.168,97.005 249.92,95.92C248.961,95.476 247.917,95.247 246.86,95.25C246.254,95.229 245.67,95.02 245.19,94.65C244.43,94.016 243.444,93.716 242.46,93.82L241.02,93.82C239.42,93.94 237.81,94.05 236.21,94.25C235.44,94.35 235.21,94.75 235.21,95.53L235.21,97C234.76,97.26 234.42,97.07 234.13,96.69C234.006,96.461 233.766,96.318 233.506,96.318C233.325,96.318 233.152,96.387 233.02,96.51C232.414,97.071 231.466,97.071 230.86,96.51C230.61,96.36 230.31,96.26 230.08,96.09C229.45,95.64 228.72,95.26 228.85,94.27C228.57,94.34 228.36,94.4 228.14,94.44C227.89,94.547 227.622,94.603 227.35,94.603C226.402,94.603 225.578,93.929 225.39,93C225.31,92.73 225.24,92.46 225.14,92.2C224.85,91.43 224.44,91.28 223.63,91.67C223.855,92.385 223.486,93.162 222.79,93.44C222.434,93.579 222.055,93.651 221.672,93.651C220.191,93.651 218.91,92.578 218.65,91.12C218.58,90.33 218.6,89.535 218.71,88.75C218.872,87.17 220.017,85.856 221.56,85.48C222.08,85.31 222.62,85.19 223.06,85.08C223.21,84.78 223.26,84.44 223.44,84.34C225.01,83.51 225.76,83.04 227.21,84.86C227.369,85.066 227.55,85.254 227.75,85.42C228,85.62 228.28,85.79 228.67,86.06C228.654,85.774 228.618,85.49 228.56,85.21C228.33,84.41 228.1,83.61 227.81,82.83C227.348,81.72 227.411,80.459 227.98,79.4C228.145,79.082 228.272,78.747 228.36,78.4C228.553,77.9 228.427,77.331 228.04,76.96C227.75,76.7 227.88,76.51 228.1,76.33C228.291,76.218 228.475,76.095 228.65,75.96C228.82,75.78 229.06,75.52 229.04,75.31C229.033,74.806 229.254,74.324 229.64,74C229.941,73.663 230.169,73.269 230.31,72.84C230.421,72.316 230.491,71.785 230.52,71.25C230.544,70.913 230.594,70.579 230.67,70.25C230.791,69.779 231.188,69.426 231.67,69.36C232.11,69.28 232.57,69.12 232.89,69.66C233.037,69.791 233.234,69.853 233.43,69.83C234.242,69.598 234.834,68.89 234.92,68.05L233.15,68.16L232.91,67.16C231.91,66.96 231.24,67.93 230.25,68.03C230.76,66.94 231.25,65.91 231.71,64.91C231.86,64.621 232.202,64.484 232.51,64.59C232.887,64.66 233.273,64.66 233.65,64.59C234.066,64.503 234.471,64.372 234.86,64.2C235.3,64.01 235.43,64.2 235.49,64.61C235.489,64.625 235.489,64.64 235.489,64.655C235.489,65.346 236.058,65.915 236.749,65.915C236.833,65.915 236.917,65.907 237,65.89C237.61,65.89 238.22,65.89 238.83,65.79C239.44,65.69 239.68,65.28 239.33,64.73C239.046,64.236 238.482,63.968 237.92,64.06C237.874,64.074 237.827,64.081 237.78,64.081C237.518,64.081 237.3,63.871 237.29,63.61C237.057,62.596 236.29,61.786 235.29,61.5C234.671,61.256 234.032,61.065 233.38,60.93C232.561,60.806 231.851,60.291 231.48,59.55C231.389,59.367 231.251,59.212 231.08,59.1C230.69,58.84 230.41,58.97 230.31,59.43C230.206,60.021 229.688,60.456 229.089,60.456C228.839,60.456 228.596,60.38 228.39,60.24C228.13,60.061 227.883,59.864 227.65,59.65C226.677,59 225.36,59.168 224.58,60.04C223.736,60.898 223.701,62.28 224.5,63.18C224.807,63.379 224.993,63.721 224.993,64.086C224.993,64.574 224.662,65.005 224.19,65.13C223.958,65.242 223.707,65.31 223.45,65.33C221.55,65.54 219.66,65.74 217.76,65.93C216.93,66.01 216.64,65.71 216.76,64.86C216.806,64.513 216.907,64.175 217.06,63.86C217.52,62.92 218.06,61.99 218.49,61.06C218.744,61.265 219.027,61.43 219.33,61.55C219.668,61.68 220.042,61.68 220.38,61.55C220.899,61.166 221.373,60.723 221.79,60.23C222.23,59.77 222.17,59.52 221.63,59.23C221.5,59.15 221.34,59.03 221.31,58.9C221.15,58.1 221.02,57.3 220.87,56.45C221.64,56.38 222.57,55.88 223.26,56.83L224.88,56.4L225.05,56.55L224.33,58.23ZM234.23,50.95C234.272,51.29 234.349,51.626 234.46,51.95C234.706,52.582 235.043,53.175 235.46,53.71C236.064,54.303 236.735,54.823 237.46,55.26C238.115,55.858 239.093,55.952 239.85,55.49C240.67,54.96 240.59,54.11 240.55,53.29C240.55,52.74 240.47,52.18 240.49,51.63C240.486,51.078 240.826,50.579 241.34,50.38C241.968,50.125 242.56,49.789 243.1,49.38C244.403,48.252 245.824,47.27 247.34,46.45C248.09,46.08 248.12,45.79 247.8,45.01C247.56,44.431 247.359,43.836 247.2,43.23C247.09,42.8 247.32,42.52 247.81,42.53L248.69,42.53C249.51,42.53 249.76,42.38 250,41.62C250.149,41.078 250.541,40.635 251.06,40.42C251.28,40.33 251.57,40.21 251.64,40.02C251.729,39.694 251.769,39.357 251.76,39.02C251.53,39.02 251.24,38.88 251.07,39.02C250.41,39.39 249.8,39.84 249.17,40.25C248.763,40.591 248.304,40.865 247.81,41.06C246.88,41.203 245.974,41.476 245.12,41.87C244.5,42.18 244.22,41.94 244.4,41.26C244.618,40.539 244.879,39.831 245.18,39.14C245.34,38.74 245.59,38.33 245.18,37.95C244.77,37.57 244.46,37.89 244.11,38.02C243.76,38.15 243.6,38.23 243.35,38.35C242.672,38.661 241.911,38.749 241.18,38.6C241.048,38.559 240.911,38.539 240.773,38.539C240.135,38.539 239.577,38.98 239.43,39.6C239.321,39.833 239.104,39.998 238.85,40.04C238.45,40.039 238.056,39.943 237.7,39.76C237.468,39.58 237.183,39.482 236.89,39.482C236.383,39.482 235.919,39.774 235.7,40.23C235.222,41.293 234.166,41.986 233,42C231.784,42.02 230.619,42.499 229.74,43.34C229.168,43.868 228.56,44.356 227.92,44.8C226.732,45.581 225.868,46.769 225.49,48.14C225.11,49.44 225.28,49.64 226.6,49.35C227.649,49.075 228.768,49.325 229.6,50.02C229.83,50.21 230.07,50.39 230.31,50.56C231.5,51.34 232.71,52.16 234.23,51L234.23,50.95ZM225.33,45.61L225.24,45.42C224.899,45.452 224.563,45.526 224.24,45.64C223.67,45.92 223.14,46.31 222.58,46.64C221.78,47.07 220.98,47.48 220.17,47.87C219.56,48.16 218.89,48.36 218.3,48.69C217.631,49.026 217.268,49.776 217.42,50.51C217.431,50.59 217.431,50.67 217.42,50.75C216.56,50.97 215.73,51.15 214.93,51.4C214.7,51.47 214.54,51.74 214.35,51.91C214.54,52.1 214.71,52.42 214.92,52.45C215.441,52.515 215.969,52.515 216.49,52.45C217.36,52.33 217.97,52.34 217.96,53.55C217.96,53.55 217.96,53.62 218.08,53.77C218.9,53.72 219.78,53.72 220.65,53.6C221.32,53.51 221.5,53.18 221.42,52.55C221.224,52.575 221.026,52.575 220.83,52.55C220.581,52.521 220.348,52.416 220.16,52.25C220.08,52.12 220.16,51.75 220.35,51.6C220.783,51.169 221.247,50.771 221.74,50.41C222.511,49.918 223.057,49.141 223.26,48.25C223.42,47.481 223.896,46.813 224.57,46.41C224.847,46.167 225.102,45.899 225.33,45.61ZM260.74,48.12C260.56,48.73 260.4,49.22 260.26,49.71C260.26,49.86 260.18,50.1 260.26,50.18C260.66,50.6 260.39,50.92 260.15,51.25L259.23,52.5C259.42,52.61 259.5,52.69 259.6,52.73C260.01,52.91 260.33,53.35 260.86,53.12C261.39,52.89 261.22,52.39 261.32,51.98C261.396,51.751 261.573,51.57 261.8,51.49C261.95,51.49 262.2,51.67 262.34,51.83C262.433,51.987 262.497,52.16 262.53,52.34C262.705,52.96 263.232,53.42 263.87,53.51C263.915,53.513 263.96,53.515 264.005,53.515C265.102,53.515 266.005,52.612 266.005,51.515C266.005,51.47 266.003,51.425 266,51.38C264.4,50.973 262.951,50.112 261.83,48.9C261.492,48.607 261.127,48.345 260.74,48.12ZM253.5,46.53C253.091,46.525 252.685,46.468 252.29,46.36C251.828,46.136 251.269,46.256 250.94,46.65C250.611,47.028 250.131,47.24 249.63,47.23C249.245,47.283 248.878,47.427 248.56,47.65C248.1,47.93 248.09,48.27 248.56,48.53C249.03,48.79 249.8,49.08 250.47,49.38C250.626,48.639 251.247,48.079 252,48C252.251,47.938 252.491,47.837 252.71,47.7C253.163,47.48 253.465,47.033 253.5,46.53ZM206.56,59.8C206.742,59.803 206.923,59.783 207.1,59.74C207.52,59.59 208.1,59.52 208.29,59.22C208.582,58.578 209.125,58.083 209.79,57.85C209.94,57.8 210.02,57.57 210.13,57.42C209.976,57.31 209.808,57.223 209.63,57.16C209.21,57.09 209,57.37 208.81,57.69C208.34,58.46 208.02,58.52 207.23,58.12C206.986,58.055 206.726,58.111 206.53,58.27C206.23,58.55 205.98,58.81 205.53,58.62C205.428,58.574 205.312,58.574 205.21,58.62C204.64,59.04 204.09,59.46 203.54,59.9C203.47,59.97 203.41,60.2 203.46,60.24C203.565,60.331 203.702,60.374 203.84,60.36C204.18,60.24 204.5,60.05 204.84,59.94C205.217,59.833 205.601,59.756 205.99,59.71C206.183,59.717 206.374,59.748 206.56,59.8ZM226.73,88.87L226.87,89.13C227.287,89.041 227.686,88.882 228.05,88.66C228.73,87.981 229.809,87.883 230.6,88.43C231.299,88.875 232.162,88.985 232.95,88.73C233.15,88.73 233.47,88.42 233.45,88.29C233.37,88.046 233.208,87.837 232.99,87.7C232.87,87.61 232.64,87.7 232.46,87.7C231.95,87.7 231.46,87.62 230.95,87.56C230.739,87.5 230.519,87.473 230.3,87.48C229.3,87.72 228.3,87.99 227.4,88.31C227.14,88.37 227,88.67 226.73,88.87ZM237.54,87.69L236.34,87.69C236.177,87.67 236.013,87.67 235.85,87.69C235.366,87.791 234.896,87.948 234.45,88.16C234.221,88.302 234.081,88.553 234.081,88.823C234.081,89.118 234.247,89.388 234.51,89.52C235.296,89.707 236.123,89.431 236.64,88.81C236.89,88.44 237.21,88.1 237.54,87.69ZM213.19,54.75C213.26,54.51 213.14,54.31 212.76,54.27C212.549,54.202 212.331,54.162 212.11,54.15C211.788,54.195 211.472,54.279 211.17,54.4C210.868,54.521 211.17,54.76 211.22,54.76C211.551,54.812 211.886,54.832 212.22,54.82C212.5,54.82 212.8,54.78 213.19,54.75ZM208.58,56.38L208.39,56.26L207.39,57.48L207.47,57.67C207.69,57.67 207.95,57.67 208.1,57.54C208.486,57.292 208.678,56.828 208.58,56.38Z" style="fill:rgb(104,225,253);fill-rule:nonzero;"/>
    </g>
    <g transform="matrix(1,0,0,1,-60.85,-0.48)">
        <path d="M342.09,135.64C342.338,135.735 342.544,135.916 342.67,136.15C343.103,136.882 343.229,137.756 343.02,138.58C342.807,139.399 342.35,140.135 341.71,140.69C341.444,141.015 341.046,141.203 340.627,141.203C339.859,141.203 339.227,140.571 339.227,139.803C339.227,139.516 339.315,139.235 339.48,139C339.77,138.38 340.07,137.84 340.31,137.18C340.55,136.52 341.2,135.38 342.09,135.64Z" style="fill:url(#_Linear25);fill-rule:nonzero;"/>
    </g>
    <defs>
        <linearGradient id="_Linear1" x1="0" y1="0" x2="1" y2="0" gradientUnits="userSpaceOnUse" gradientTransform="matrix(-11.86,1.23,-1.23,-11.86,343.58,150.19)"><stop offset="0" style="stop-color:rgb(229,197,213);stop-opacity:1"/><stop offset="0.42" style="stop-color:rgb(234,212,209);stop-opacity:1"/><stop offset="1" style="stop-color:rgb(240,233,203);stop-opacity:1"/></linearGradient>
        <linearGradient id="_Linear2" x1="0" y1="0" x2="1" y2="0" gradientUnits="userSpaceOnUse" gradientTransform="matrix(529.238,220.781,-220.781,529.238,3927.15,1507.54)"><stop offset="0" style="stop-color:rgb(229,197,213);stop-opacity:1"/><stop offset="0.42" style="stop-color:rgb(234,212,209);stop-opacity:1"/><stop offset="1" style="stop-color:rgb(240,233,203);stop-opacity:1"/></linearGradient>
        <linearGradient id="_Linear3" x1="0" y1="0" x2="1" y2="0" gradientUnits="userSpaceOnUse" gradientTransform="matrix(13.67,0,0,13.67,148.51,132.33)"><stop offset="0" style="stop-color:black;stop-opacity:0"/><stop offset="0.99" style="stop-color:black;stop-opacity:1"/><stop offset="1" style="stop-color:black;stop-opacity:1"/></linearGradient>
        <linearGradient id="_Linear4" x1="0" y1="0" x2="1" y2="0" gradientUnits="userSpaceOnUse" gradientTransform="matrix(1183.38,0,0,1183.38,6823.96,5726.23)"><stop offset="0" style="stop-color:rgb(229,197,213);stop-opacity:1"/><stop offset="0.42" style="stop-color:rgb(234,212,209);stop-opacity:1"/><stop offset="1" style="stop-color:rgb(240,233,203);stop-opacity:1"/></linearGradient>
        <linearGradient id="_Linear5" x1="0" y1="0" x2="1" y2="0" gradientUnits="userSpaceOnUse" gradientTransform="matrix(-196.763,449.47,-449.47,-196.763,52423.8,1537.37)"><stop offset="0" style="stop-color:black;stop-opacity:0"/><stop offset="0.99" style="stop-color:black;stop-opacity:1"/><stop offset="1" style="stop-color:black;stop-opacity:1"/></linearGradient>
        <linearGradient id="_Linear6" x1="0" y1="0" x2="1" y2="0" gradientUnits="userSpaceOnUse" gradientTransform="matrix(-212.035,-10.6288,10.6288,-212.035,3463.43,7381.8)"><stop offset="0" style="stop-color:black;stop-opacity:0"/><stop offset="0.99" style="stop-color:black;stop-opacity:1"/><stop offset="1" style="stop-color:black;stop-opacity:1"/></linearGradient>
        <linearGradient id="_Linear7" x1="0" y1="0" x2="1" y2="0" gradientUnits="userSpaceOnUse" gradientTransform="matrix(669.379,1392.23,-1392.23,669.379,7224.61,6929.84)"><stop offset="0" style="stop-color:black;stop-opacity:0"/><stop offset="0.99" style="stop-color:black;stop-opacity:1"/><stop offset="1" style="stop-color:black;stop-opacity:1"/></linearGradient>
        <linearGradient id="_Linear8" x1="0" y1="0" x2="1" y2="0" gradientUnits="userSpaceOnUse" gradientTransform="matrix(140.571,-1712.36,1712.36,140.571,6052.3,6250.78)"><stop offset="0" style="stop-color:black;stop-opacity:0"/><stop offset="0.99" style="stop-color:black;stop-opacity:1"/><stop offset="1" style="stop-color:black;stop-opacity:1"/></linearGradient>
        <linearGradient id="_Linear9" x1="0" y1="0" x2="1" y2="0" gradientUnits="userSpaceOnUse" gradientTransform="matrix(-604.779,1397.16,-1397.16,-604.779,6150.27,5461.92)"><stop offset="0" style="stop-color:black;stop-opacity:0"/><stop offset="0.99" style="stop-color:black;stop-opacity:1"/><stop offset="1" style="stop-color:black;stop-opacity:1"/></linearGradient>
        <linearGradient id="_Linear10" x1="0" y1="0" x2="1" y2="0" gradientUnits="userSpaceOnUse" gradientTransform="matrix(113.388,662.538,-662.538,113.388,4048.49,4718.27)"><stop offset="0" style="stop-color:rgb(229,197,213);stop-opacity:1"/><stop offset="0.42" style="stop-color:rgb(234,212,209);stop-opacity:1"/><stop offset="1" style="stop-color:rgb(240,233,203);stop-opacity:1"/></linearGradient>
        <linearGradient id="_Linear11" x1="0" y1="0" x2="1" y2="0" gradientUnits="userSpaceOnUse" gradientTransform="matrix(385.278,-306.786,306.786,385.278,1864.8,1828.91)"><stop offset="0" style="stop-color:rgb(229,197,213);stop-opacity:1"/><stop offset="0.42" style="stop-color:rgb(234,212,209);stop-opacity:1"/><stop offset="1" style="stop-color:rgb(240,233,203);stop-opacity:1"/></linearGradient>
        <linearGradient id="_Linear12" x1="0" y1="0" x2="1" y2="0" gradientUnits="userSpaceOnUse" gradientTransform="matrix(377.93,995.216,-995.216,377.93,5119.94,4156.33)"><stop offset="0" style="stop-color:rgb(229,197,213);stop-opacity:1"/><stop offset="0.42" style="stop-color:rgb(234,212,209);stop-opacity:1"/><stop offset="1" style="stop-color:rgb(240,233,203);stop-opacity:1"/></linearGradient>
        <linearGradient id="_Linear13" x1="0" y1="0" x2="1" y2="0" gradientUnits="userSpaceOnUse" gradientTransform="matrix(1066.57,0,0,1066.57,5372.96,3336.01)"><stop offset="0" style="stop-color:black;stop-opacity:0"/><stop offset="0.99" style="stop-color:black;stop-opacity:1"/><stop offset="1" style="stop-color:black;stop-opacity:1"/></linearGradient>
        <linearGradient id="_Linear14" x1="0" y1="0" x2="1" y2="0" gradientUnits="userSpaceOnUse" gradientTransform="matrix(1610.95,0,0,1610.95,5948.68,4975.02)"><stop offset="0" style="stop-color:rgb(229,197,213);stop-opacity:1"/><stop offset="0.42" style="stop-color:rgb(234,212,209);stop-opacity:1"/><stop offset="1" style="stop-color:rgb(240,233,203);stop-opacity:1"/></linearGradient>
        <linearGradient id="_Linear15" x1="0" y1="0" x2="1" y2="0" gradientUnits="userSpaceOnUse" gradientTransform="matrix(1253.87,146.086,-146.086,1253.87,9880.67,5005.09)"><stop offset="0" style="stop-color:rgb(229,197,213);stop-opacity:1"/><stop offset="0.42" style="stop-color:rgb(234,212,209);stop-opacity:1"/><stop offset="1" style="stop-color:rgb(240,233,203);stop-opacity:1"/></linearGradient>
        <linearGradient id="_Linear16" x1="0" y1="0" x2="1" y2="0" gradientUnits="userSpaceOnUse" gradientTransform="matrix(1342.09,0,0,1342.09,11750.6,3625.46)"><stop offset="0" style="stop-color:black;stop-opacity:0"/><stop offset="0.99" style="stop-color:black;stop-opacity:1"/><stop offset="1" style="stop-color:black;stop-opacity:1"/></linearGradient>
        <linearGradient id="_Linear17" x1="0" y1="0" x2="1" y2="0" gradientUnits="userSpaceOnUse" gradientTransform="matrix(-341.674,-183.696,183.696,-341.674,7153.87,7258.95)"><stop offset="0" style="stop-color:black;stop-opacity:0"/><stop offset="0.99" style="stop-color:black;stop-opacity:1"/><stop offset="1" style="stop-color:black;stop-opacity:1"/></linearGradient>
        <linearGradient id="_Linear18" x1="0" y1="0" x2="1" y2="0" gradientUnits="userSpaceOnUse" gradientTransform="matrix(1626.69,4190.36,-4190.36,1626.69,14050.5,5670.64)"><stop offset="0" style="stop-color:black;stop-opacity:0"/><stop offset="0.99" style="stop-color:black;stop-opacity:1"/><stop offset="1" style="stop-color:black;stop-opacity:1"/></linearGradient>
        <linearGradient id="_Linear19" x1="0" y1="0" x2="1" y2="0" gradientUnits="userSpaceOnUse" gradientTransform="matrix(373.085,0,0,373.085,6485.38,1757.11)"><stop offset="0" style="stop-color:rgb(229,197,213);stop-opacity:1"/><stop offset="0.42" style="stop-color:rgb(234,212,209);stop-opacity:1"/><stop offset="1" style="stop-color:rgb(240,233,203);stop-opacity:1"/></linearGradient>
        <linearGradient id="_Linear20" x1="0" y1="0" x2="1" y2="0" gradientUnits="userSpaceOnUse" gradientTransform="matrix(277.18,0,0,277.18,5388.9,1741.99)"><stop offset="0" style="stop-color:rgb(229,197,213);stop-opacity:1"/><stop offset="0.42" style="stop-color:rgb(234,212,209);stop-opacity:1"/><stop offset="1" style="stop-color:rgb(240,233,203);stop-opacity:1"/></linearGradient>
        <linearGradient id="_Linear21" x1="0" y1="0" x2="1" y2="0" gradientUnits="userSpaceOnUse" gradientTransform="matrix(-2.86098e-11,5431.02,-5431.02,-2.86098e-11,66259.9,7742.46)"><stop offset="0" style="stop-color:black;stop-opacity:0"/><stop offset="0.99" style="stop-color:black;stop-opacity:1"/><stop offset="1" style="stop-color:black;stop-opacity:1"/></linearGradient>
        <linearGradient id="_Linear22" x1="0" y1="0" x2="1" y2="0" gradientUnits="userSpaceOnUse" gradientTransform="matrix(103.249,245.18,-245.18,103.249,3102.96,6930.09)"><stop offset="0" style="stop-color:black;stop-opacity:0"/><stop offset="0.99" style="stop-color:black;stop-opacity:1"/><stop offset="1" style="stop-color:black;stop-opacity:1"/></linearGradient>
        <linearGradient id="_Linear23" x1="0" y1="0" x2="1" y2="0" gradientUnits="userSpaceOnUse" gradientTransform="matrix(6.85935,0,0,6.85935,593.276,802.998)"><stop offset="0" style="stop-color:rgb(229,197,213);stop-opacity:1"/><stop offset="0.42" style="stop-color:rgb(234,212,209);stop-opacity:1"/><stop offset="1" style="stop-color:rgb(240,233,203);stop-opacity:1"/></linearGradient>
        <linearGradient id="_Linear24" x1="0" y1="0" x2="1" y2="0" gradientUnits="userSpaceOnUse" gradientTransform="matrix(-239.722,225.894,-225.894,-239.722,1555.58,2654.38)"><stop offset="0" style="stop-color:black;stop-opacity:0"/><stop offset="0.99" style="stop-color:black;stop-opacity:1"/><stop offset="1" style="stop-color:black;stop-opacity:1"/></linearGradient>
        <linearGradient id="_Linear25" x1="0" y1="0" x2="1" y2="0" gradientUnits="userSpaceOnUse" gradientTransform="matrix(85.0756,54.2745,-54.2745,85.0756,1637.35,891.749)"><stop offset="0" style="stop-color:rgb(229,197,213);stop-opacity:1"/><stop offset="0.42" style="stop-color:rgb(234,212,209);stop-opacity:1"/><stop offset="1" style="stop-color:rgb(240,233,203);stop-opacity:1"/></linearGradient>
    </defs>
</svg>
